<?xml version="1.0" standalone="no"?>
<!DOCTYPE svg PUBLIC "-//W3C//DTD SVG 20010904//EN"
 "http://www.w3.org/TR/2001/REC-SVG-20010904/DTD/svg10.dtd">
<svg version="1.0" xmlns="http://www.w3.org/2000/svg"
 width="3290.000000pt" height="3316.000000pt" viewBox="0 0 3290.000000 3316.000000"
 preserveAspectRatio="xMidYMid meet">

<g transform="translate(0.000000,3316.000000) scale(0.100000,-0.100000)"
fill="#000000" stroke="none">
<path d="M6710 33149 c-231 -27 -475 -152 -623 -320 -72 -81 -171 -233 -221
-339 -108 -231 -174 -487 -222 -865 -23 -177 -27 -1519 -15 -4810 8 -2296 10
-2508 26 -2600 9 -55 21 -116 26 -135 12 -50 49 -509 59 -745 5 -110 14 -245
20 -300 14 -126 30 -532 36 -914 l5 -294 50 89 c283 496 555 882 845 1197 l62
67 -5 3428 c-5 2610 -3 3463 6 3577 30 381 99 669 218 913 117 241 301 427
503 508 129 53 205 67 365 67 364 2 745 -138 1245 -457 69 -44 2977 -1807
6463 -3918 l6338 -3838 748 2 748 3 -7480 4530 c-4114 2492 -7549 4573 -7631
4626 -518 330 -907 490 -1285 529 -116 11 -173 11 -281 -1z"/>
<path d="M17984 22508 c-422 -622 -919 -1279 -1402 -1858 l-122 -145 -3457 0
-3458 0 -49 -24 c-66 -33 -142 -110 -200 -204 -61 -98 -157 -332 -203 -497
-31 -111 -36 -142 -40 -278 l-5 -152 33 -43 c89 -112 240 -274 298 -317 36
-27 110 -75 165 -107 l101 -58 2100 -6 c1751 -5 2112 -8 2175 -20 l75 -14 3
-52 c2 -29 -1 -53 -6 -53 -4 0 -34 5 -66 11 -188 34 -360 -105 -407 -331 -22
-109 -28 -435 -45 -2620 -3 -399 -9 -986 -13 -1305 -9 -805 -1 -893 85 -1013
19 -26 38 -56 43 -67 5 -12 26 -33 47 -47 111 -76 300 -91 429 -33 17 7 46 20
65 28 19 8 91 46 160 84 115 65 182 104 435 256 236 141 333 197 346 198 8 0
41 18 74 39 33 22 80 50 105 64 25 13 94 54 153 90 59 36 110 66 113 66 7 0
178 103 184 111 3 3 21 14 40 24 42 21 273 157 280 166 8 8 207 129 214 129 4
0 35 17 69 39 97 60 375 224 449 265 37 21 70 41 73 46 3 5 31 23 63 41 63 35
238 137 403 236 59 35 111 63 115 63 5 0 46 24 92 53 112 71 242 150 392 237
164 96 219 133 291 198 106 96 152 189 151 305 -1 61 -30 165 -54 194 -14 17
-26 8 131 101 201 118 280 214 268 326 -3 29 -17 76 -30 103 -52 102 -88 125
-937 602 -1375 773 -1463 822 -1472 813 -14 -14 -106 -393 -142 -588 -62 -331
-117 -753 -151 -1148 l-7 -80 -43 150 c-217 747 -554 1381 -941 1768 -287 286
-607 475 -881 519 l-73 12 0 117 c0 186 28 275 107 335 33 25 45 28 112 28 98
0 99 -1 622 -298 229 -131 420 -237 425 -236 9 0 48 48 124 148 19 26 58 74
85 108 28 34 68 85 89 112 l39 51 103 0 103 0 164 198 c905 1091 1631 2143
2251 3265 l37 67 -80 0 -80 0 -117 -172z"/>
<path d="M28415 21183 c-238 -320 -554 -700 -899 -1080 l-128 -143 -2757 -2
-2756 -3 -75 -22 c-427 -123 -926 -620 -1336 -1333 -120 -210 -346 -691 -331
-706 2 -2 35 0 73 6 44 6 1000 10 2684 10 1764 0 2636 4 2680 11 37 6 81 20
102 34 21 14 42 25 46 25 10 0 236 248 349 381 89 105 189 225 251 301 l54 66
89 7 89 6 107 117 c260 282 552 627 797 944 l153 196 1214 -735 c668 -404
1258 -765 1312 -801 252 -169 551 -448 689 -642 175 -246 258 -501 245 -749
-21 -402 -280 -777 -798 -1156 -65 -47 -574 -368 -1131 -712 -557 -344 -1501
-927 -2098 -1296 -597 -368 -1094 -676 -1105 -684 -18 -13 41 -14 493 -11 281
3 512 2 512 0 0 -15 -250 -459 -488 -867 -110 -188 -123 -228 -61 -184 15 10
32 19 38 19 7 0 34 11 61 25 28 14 50 23 50 21 0 -3 37 14 83 38 45 23 87 41
93 39 7 -2 29 7 49 21 21 14 42 23 47 20 5 -3 21 2 36 12 41 28 105 57 120 55
7 -1 29 8 48 20 19 12 37 19 40 16 15 -15 2 -23 3494 2130 1039 641 1271 786
1377 860 432 300 736 632 872 953 103 241 118 514 45 769 -120 411 -498 849
-1045 1207 -57 38 -922 564 -1920 1168 l-1816 1100 212 315 c221 330 228 341
223 341 -2 0 -40 -48 -83 -107z"/>
<path d="M5319 20888 c-52 -56 -111 -120 -132 -142 -214 -226 -547 -709 -762
-1106 -37 -69 -92 -169 -121 -223 -30 -53 -54 -99 -54 -102 0 -2 -23 -53 -51
-112 -28 -60 -64 -137 -79 -173 -15 -36 -45 -108 -67 -160 -189 -447 -326
-928 -379 -1335 -21 -157 -24 -568 -5 -750 84 -827 298 -1515 665 -2135 177
-299 372 -549 593 -760 l127 -120 300 -1 c166 -1 1714 -1 3441 0 3437 1 3188
-3 3287 60 82 52 110 121 145 351 14 91 17 184 17 450 0 327 0 338 -27 462
-45 213 -88 297 -170 337 l-43 21 -2125 0 c-1321 0 -2166 4 -2236 10 -403 36
-727 172 -1057 444 -346 286 -635 639 -877 1071 -330 592 -547 1330 -609 2078
-14 166 -14 554 0 682 35 333 112 656 254 1068 36 103 64 187 62 187 -2 0 -46
-46 -97 -102z"/>
<path d="M16976 20143 c-69 -87 -157 -200 -198 -250 -40 -51 -147 -173 -238
-272 -271 -296 -364 -408 -571 -693 -25 -35 -87 -126 -139 -203 -51 -77 -106
-160 -122 -184 -16 -24 -26 -47 -21 -52 20 -19 545 -320 550 -315 2 2 22 66
44 142 99 342 253 770 407 1129 78 182 291 621 375 773 25 45 44 82 41 82 -2
0 -60 -71 -128 -157z"/>
<path d="M16095 14173 c-95 -792 -462 -1759 -940 -2478 -247 -372 -517 -681
-815 -931 -255 -215 -532 -363 -810 -432 l-105 -27 -5402 -2 c-2972 -2 -5403
-1 -5403 2 0 3 23 56 51 118 44 98 93 193 305 592 34 64 41 85 26 71 -26 -22
-323 -468 -520 -778 -34 -54 -89 -140 -121 -190 -32 -51 -98 -158 -146 -238
-48 -80 -100 -163 -115 -185 -27 -40 -237 -392 -342 -575 -30 -52 -73 -126
-95 -165 -72 -123 -221 -395 -313 -572 -80 -151 -87 -205 -33 -240 26 -17 144
-18 2118 -24 1407 -4 2108 -10 2145 -17 30 -6 107 -20 170 -32 234 -42 380
-111 418 -198 21 -48 28 -618 41 -3342 7 -1205 15 -2051 21 -2120 35 -392 126
-657 297 -857 52 -61 185 -173 206 -173 8 0 52 -18 98 -39 262 -123 603 -118
952 13 37 15 79 26 94 26 32 0 319 140 455 222 53 32 99 58 102 58 3 0 45 26
93 57 48 31 113 69 143 85 30 16 82 46 115 68 33 22 77 49 99 61 21 11 82 49
135 83 53 34 121 77 151 96 99 60 253 156 380 235 142 89 344 214 409 253 24
15 96 60 160 101 64 40 126 77 137 81 12 5 62 35 112 67 120 77 192 121 267
163 34 19 100 59 146 88 46 29 134 83 194 121 61 37 160 99 222 137 61 38 148
92 193 119 45 28 118 74 163 103 45 29 107 65 138 80 30 15 93 51 140 80 209
132 294 185 309 190 8 3 51 29 95 57 44 28 91 58 105 65 14 7 62 37 107 67 45
29 84 53 88 53 3 0 45 26 93 58 48 32 116 75 152 95 36 21 121 74 190 117 69
44 145 90 170 104 43 23 182 108 315 192 33 21 89 56 125 77 36 22 88 54 115
72 28 17 74 44 103 58 30 15 77 42 105 61 63 41 133 84 382 233 105 63 224
136 265 162 167 106 258 161 268 161 6 0 55 28 109 63 54 35 124 79 157 98 32
19 72 42 90 53 17 10 65 37 106 58 41 22 82 46 90 53 8 7 103 65 210 130 107
65 236 144 287 176 50 33 94 59 98 59 3 0 69 38 145 85 77 47 143 84 146 84 3
-1 56 30 117 69 62 38 175 106 252 152 77 46 174 105 216 131 41 27 78 49 81
49 4 0 33 17 65 38 32 20 67 43 78 50 11 6 43 23 70 37 88 45 109 57 150 83
22 15 61 38 86 52 39 21 150 88 327 198 20 12 51 30 67 38 41 21 61 33 136 80
90 58 211 128 324 190 28 14 68 38 90 53 82 54 163 86 275 112 76 17 115 19
355 15 149 -2 326 -10 395 -16 112 -11 129 -11 157 4 39 20 70 20 248 1 678
-72 858 -80 1960 -80 1069 0 1005 -4 1103 65 75 53 444 450 644 694 l53 66 72
0 71 0 186 196 c566 595 962 1113 1455 1902 28 45 50 82 48 82 -2 0 -35 -39
-73 -87 -168 -213 -422 -499 -658 -740 l-129 -133 -941 0 c-1279 0 -1673 20
-2331 116 -910 133 -1570 322 -2201 629 -908 441 -1567 1010 -2089 1800 -369
560 -618 1143 -770 1805 -20 84 -37 156 -39 157 -2 2 -7 -22 -11 -54z m-1046
-3628 c146 -267 440 -698 571 -840 16 -16 80 -86 143 -155 217 -237 456 -453
681 -615 121 -88 290 -204 321 -221 17 -9 68 -40 115 -69 179 -110 592 -325
624 -325 7 0 44 -14 82 -31 38 -17 100 -44 137 -59 l68 -27 -108 -70 c-59 -39
-1910 -1183 -4113 -2543 -2203 -1360 -4115 -2541 -4250 -2625 -298 -184 -445
-266 -610 -338 -501 -218 -918 -242 -1265 -72 -329 161 -543 475 -631 925 -15
77 -17 295 -25 2240 -4 1185 -5 2203 -2 2262 l6 107 2491 4 c2774 4 2589 -1
2833 72 65 20 173 63 240 95 68 33 125 60 129 60 14 0 235 158 319 229 182
151 440 422 577 603 20 27 71 73 114 104 184 132 414 340 574 519 269 300 475
598 710 1023 l74 133 81 -163 c45 -90 96 -190 114 -223z"/>
<path d="M3030 11130 c-6 -11 -8 -20 -6 -20 3 0 10 9 16 20 6 11 8 20 6 20 -3
0 -10 -9 -16 -20z"/>
</g>
</svg>
